HIERARCHY
ROOT Hips
{
	OFFSET 0.000000 0.000000 0.000000
	CHANNELS 6 Xposition Yposition Zposition Zrotation Yrotation Xrotation 
	JOINT LHipJoint
	{
		OFFSET 0.000000 0.000000 0.000000
		CHANNELS 3 Zrotation Yrotation Xrotation
		JOINT LeftUpLeg
		{
			OFFSET 1.363060 -1.794630 0.839290
			CHANNELS 3 Zrotation Yrotation Xrotation
			JOINT LeftLeg
			{
				OFFSET 2.448110 -6.726130 0.000000
				CHANNELS 3 Zrotation Yrotation Xrotation
				JOINT LeftFoot
				{
					OFFSET 2.562200 -7.039590 0.000000
					CHANNELS 3 Zrotation Yrotation Xrotation
					JOINT LeftToeBase
					{
						OFFSET 0.157640 -0.433110 2.322550
						CHANNELS 3 Zrotation Yrotation Xrotation
						End Site
						{
							OFFSET 0.000000 0.000000 0.000000
						}
					}
				}
			}
		}
	}
	JOINT RHipJoint
	{
		OFFSET 0.000000 0.000000 0.000000
		CHANNELS 3 Zrotation Yrotation Xrotation
		JOINT RightUpLeg
		{
			OFFSET -1.305520 -1.794630 0.839290
			CHANNELS 3 Zrotation Yrotation Xrotation
			JOINT RightLeg
			{
				OFFSET -2.542530 -6.985550 0.000000
				CHANNELS 3 Zrotation Yrotation Xrotation
				JOINT RightFoot
				{
					OFFSET -2.568260 -7.056230 0.000000
					CHANNELS 3 Zrotation Yrotation Xrotation
					JOINT RightToeBase
					{
						OFFSET -0.164730 -0.452590 2.363150
						CHANNELS 3 Zrotation Yrotation Xrotation
						End Site
						{
							OFFSET 0.000000 0.000000 0.000000
						}
					}
				}
			}
		}
	}
	JOINT LowerBack
	{
		OFFSET 0.000000 0.000000 0.000000
		CHANNELS 3 Zrotation Yrotation Xrotation
		JOINT Spine
		{
			OFFSET 0.028270 2.035590 -0.193380
			CHANNELS 3 Zrotation Yrotation Xrotation
			JOINT Spine1
			{
				OFFSET 0.056720 2.048850 -0.042750
				CHANNELS 3 Zrotation Yrotation Xrotation
				JOINT Neck
				{
					OFFSET 0.000000 0.000000 0.000000
					CHANNELS 3 Zrotation Yrotation Xrotation
					JOINT Neck1
					{
						OFFSET -0.054170 1.746240 0.172020
						CHANNELS 3 Zrotation Yrotation Xrotation
						JOINT Head
						{
							OFFSET 0.104070 1.761360 -0.123970
							CHANNELS 3 Zrotation Yrotation Xrotation
							End Site
							{
								OFFSET 0.000000 0.000000 0.000000
							}
						}
					}
				}
				JOINT LeftShoulder
				{
					OFFSET 0.000000 0.000000 0.000000
					CHANNELS 3 Zrotation Yrotation Xrotation
					JOINT LeftArm
					{
						OFFSET 3.362410 1.200890 -0.311210
						CHANNELS 3 Zrotation Yrotation Xrotation
						JOINT LeftForeArm
						{
							OFFSET 4.983000 -0.000000 -0.000000
							CHANNELS 3 Zrotation Yrotation Xrotation
							JOINT LeftHand
							{
								OFFSET 3.483560 -0.000000 -0.000000
								CHANNELS 3 Zrotation Yrotation Xrotation
								JOINT LeftFingerBase
								{
									OFFSET 0.000000 0.000000 0.000000
									CHANNELS 3 Zrotation Yrotation Xrotation
									JOINT LeftHandIndex1
									{
										OFFSET 0.715260 -0.000000 -0.000000
										CHANNELS 3 Zrotation Yrotation Xrotation
										End Site
										{
											OFFSET 0.000000 0.000000 0.000000
										}
									}
								}
								JOINT LThumb
								{
									OFFSET 0.000000 0.000000 0.000000
									CHANNELS 3 Zrotation Yrotation Xrotation
									End Site
									{
										OFFSET 0.000000 0.000000 0.000000
									}
								}
							}
						}
					}
				}
				JOINT RightShoulder
				{
					OFFSET 0.000000 0.000000 0.000000
					CHANNELS 3 Zrotation Yrotation Xrotation
					JOINT RightArm
					{
						OFFSET -3.136600 1.374050 -0.404650
						CHANNELS 3 Zrotation Yrotation Xrotation
						JOINT RightForeArm
						{
							OFFSET -5.241900 -0.000000 -0.000000
							CHANNELS 3 Zrotation Yrotation Xrotation
							JOINT RightHand
							{
								OFFSET -3.444170 -0.000000 -0.000000
								CHANNELS 3 Zrotation Yrotation Xrotation
								JOINT RightFingerBase
								{
									OFFSET 0.000000 0.000000 0.000000
									CHANNELS 3 Zrotation Yrotation Xrotation
									JOINT RightHandIndex1
									{
										OFFSET -0.622530 -0.000000 -0.000000
										CHANNELS 3 Zrotation Yrotation Xrotation
										End Site
										{
											OFFSET 0.000000 0.000000 0.000000
										}
									}
								}
								JOINT RThumb
								{
									OFFSET 0.000000 0.000000 0.000000
									CHANNELS 3 Zrotation Yrotation Xrotation
									End Site
									{
										OFFSET 0.000000 0.000000 0.000000
									}
								}
							}
						}
					}
				}
			}
		}
	}
}
MOTION
Frames: 8
Frame Time: 0.008333
2.034767 17.077789 -50.129649 -1.351360 -13.313207 31.331197 -2.109206 -5.652389 -8.859239 -9.178789 0.042540 -65.680637 9.439182 19.842362 57.764529 3.374631 -6.072198 5.797467 0.115100 -2.187400 -6.023700 9.246382 -2.593488 9.406835 4.140305 0.942984 -2.375646 1.558653 -4.030770 9.044267 6.726132 -25.950596 25.679672 -3.168100 10.962400 -32.153100 -2.151051 6.861949 19.622607 -1.345767 7.444538 -4.068461 -5.795779 4.168327 -6.923239 -3.029690 -2.834567 -16.168802 3.009891 -3.790579 -3.734517 0.547100 -2.062300 2.409600 4.187014 -3.187803 0.127762 -80.875734 40.241219 33.772728 96.747361 -61.309475 -72.386658 -0.567605 -0.454175 -11.829788 23.414123 -15.486172 -6.617100 -7.125000 0.000000 0.000000 -2.372100 13.573700 1.750700 -6.418275 4.072845 0.181504 85.040744 8.311242 43.114780 -106.349385 57.406455 -80.506275 1.349087 0.190165 -0.092046 -19.284150 2.214811 -0.755400 7.125000 0.000000 0.000000 4.587400 -27.826200 1.921300 
2.025126 17.096421 -49.760479 -1.293603 -12.599811 31.557865 -2.402483 -5.755978 -8.681063 -9.152574 -0.298211 -64.929563 9.602211 19.921373 58.238654 3.393686 -6.136303 5.583397 0.006200 -0.509200 -1.399300 9.580546 -2.295530 9.094138 4.006487 0.833373 -3.938374 1.087573 -5.200805 11.755048 4.956054 -25.621001 31.767167 -4.611500 12.932500 -39.116400 -2.023253 6.591395 19.822464 -1.314716 7.126902 -4.105170 -5.782618 3.980036 -7.163637 -3.068070 -2.875382 -16.076996 3.215187 -3.821757 -3.917357 0.677800 -2.056100 2.319000 4.178852 -3.227789 0.137716 -81.732751 40.041932 33.004419 96.261223 -61.257751 -72.021835 -0.584826 -0.506744 -11.360443 23.493797 -13.881200 -5.937100 -7.125000 0.000000 0.000000 -2.191600 15.352800 1.534300 -6.431128 4.097666 0.182189 85.271055 7.604285 42.971264 -105.906399 57.480584 -80.150783 1.347757 0.224154 -0.249748 -19.282346 1.876802 -0.617200 7.125000 0.000000 0.000000 4.602600 -28.217200 1.885000 
2.016894 17.102812 -49.395318 -1.101508 -11.780425 31.703472 -2.674802 -5.891187 -8.467388 -9.180290 -0.782401 -64.068015 9.764604 19.971055 58.657771 3.447278 -6.145602 4.520830 0.000600 -0.152200 -0.418200 9.667170 -1.837803 8.624279 4.225326 0.271378 -5.450275 0.357646 -6.491932 15.271170 4.180296 -25.341349 34.151067 -4.104600 12.298300 -36.795700 -1.927039 6.295814 20.068346 -1.285547 6.786863 -4.121522 -5.717605 3.781781 -7.298045 -3.065909 -2.933267 -16.174853 3.344059 -3.887884 -4.121336 0.737600 -2.077900 2.255300 4.162877 -3.295292 0.142669 -82.589936 39.344169 32.291499 94.768328 -61.154289 -70.914107 -0.611915 -0.523776 -10.998309 23.238915 -13.647606 -5.767500 -7.125000 0.000000 0.000000 -2.332700 15.649300 1.618300 -6.418190 4.119826 0.179350 85.477193 6.882540 42.681580 -104.807015 57.631277 -79.306868 1.354386 0.250367 -0.368440 -19.352197 1.794870 -0.579700 7.125000 0.000000 0.000000 4.546900 -28.329500 1.850000 
2.005953 17.111695 -49.033297 -0.965004 -11.071603 31.799652 -2.935677 -5.994002 -8.246305 -9.130774 -1.188067 -63.070895 9.903338 20.002769 58.986292 3.664401 -6.517731 3.227854 0.002500 -0.320600 -0.880900 9.711663 -1.451526 8.160326 4.483272 -0.215513 -6.729573 -0.435561 -7.661645 18.401729 3.443012 -25.534949 36.663916 -4.208000 12.432200 -37.278500 -1.872886 6.037242 20.387925 -1.252773 6.480869 -4.135670 -5.593048 3.602559 -7.473936 -3.118324 -2.982079 -16.201543 3.500486 -3.929809 -4.305067 0.826300 -2.084600 2.190700 4.138039 -3.368937 0.152069 -83.380106 38.430752 31.750590 93.430447 -61.006779 -69.900198 -0.632541 -0.531820 -10.724336 22.936767 -13.547346 -5.646200 -7.125000 0.000000 0.000000 -2.520800 15.796600 1.741100 -6.391730 4.155346 0.172833 85.617681 6.152556 42.446070 -103.233515 57.806926 -78.099789 1.357979 0.307857 -0.639029 -19.421165 1.484743 -0.444900 7.125000 0.000000 0.000000 4.503100 -28.714200 1.790900 
1.993387 17.146900 -48.659469 -0.617074 -10.475292 31.848514 -3.217804 -6.111137 -7.969115 -9.371260 -1.570558 -61.915951 9.969477 19.970557 59.126648 3.824455 -6.674324 1.930713 0.013800 -0.758700 -2.085000 9.598760 -0.970612 7.532260 4.841533 -1.084807 -8.328427 -1.452693 -8.859927 21.878016 3.656375 -26.256475 36.711000 -2.872400 10.485500 -30.563700 -2.092088 5.767247 20.616192 -1.221982 6.123056 -4.136710 -5.326832 3.408804 -7.560899 -3.046554 -2.972204 -16.286301 3.562500 -3.931852 -4.473671 0.809600 -2.087800 2.121100 4.103007 -3.478894 0.164868 -84.180572 36.593507 31.723016 91.378039 -60.715884 -68.246386 -0.691862 -0.517108 -10.533767 23.419143 -13.925116 -5.959400 -7.125000 0.000000 0.000000 -2.175400 15.312400 1.524800 -6.325897 4.199393 0.150567 85.922279 5.217866 42.300189 -99.979371 58.051688 -75.562177 1.378554 0.387188 -1.380963 -19.673145 1.396697 -0.392900 7.125000 0.000000 0.000000 4.292400 -28.875300 1.690200 
1.982013 17.158383 -48.294741 -0.369297 -9.795186 31.882577 -3.458485 -6.219658 -7.703472 -9.532164 -1.949488 -60.786865 10.029884 19.927173 59.247809 3.952154 -6.769866 0.867915 0.017100 -0.845200 -2.323100 9.392611 -0.485520 6.924311 5.306638 -1.554195 -9.692481 -2.458348 -9.996938 25.572558 3.387823 -25.771215 37.062101 -2.494500 9.828000 -28.421400 -2.145592 5.476681 20.914063 -1.192650 5.771730 -4.144763 -5.121099 3.213576 -7.703084 -3.032162 -2.980715 -16.298416 3.671843 -3.941177 -4.651520 0.845300 -2.086700 2.040800 4.072799 -3.573481 0.172455 -84.906338 35.192816 31.562273 89.779868 -60.461278 -66.942346 -0.729432 -0.514573 -10.369810 23.614842 -13.929807 -6.026600 -7.125000 0.000000 0.000000 -2.017500 15.277500 1.415500 -6.280823 4.240021 0.131253 86.206864 4.365022 42.143003 -97.354010 58.150851 -73.490677 1.390143 0.454411 -1.888890 -19.825389 1.222997 -0.307100 7.125000 0.000000 0.000000 4.169200 -29.120600 1.617100 
1.969556 17.167374 -47.932504 -0.075414 -9.130338 31.889508 -3.689759 -6.318118 -7.420670 -9.754955 -2.330535 -59.606538 10.060490 19.855669 59.286012 4.075731 -6.826149 -0.199508 0.027300 -1.067000 -2.933300 9.089942 0.011118 6.271288 5.822728 -1.959793 -11.127314 -3.567407 -11.127191 29.549521 3.462618 -25.235115 36.313839 -2.153300 9.178400 -26.355100 -2.247093 5.173843 21.214808 -1.164084 5.399680 -4.151841 -4.873487 3.012182 -7.847593 -3.011873 -2.974625 -16.286633 3.769005 -3.934681 -4.821263 0.869400 -2.080300 1.956300 4.038482 -3.676545 0.178892 -85.565148 33.586221 31.585488 88.140771 -60.163734 -65.565875 -0.766639 -0.504441 -10.318788 23.855369 -14.062619 -6.166900 -7.125000 0.000000 0.000000 -1.838700 15.088600 1.297300 -6.226625 4.287128 0.102353 86.545114 3.461972 42.014248 -94.215686 58.154105 -70.973604 1.404718 0.526096 -2.456827 -20.014133 1.079269 -0.230800 7.125000 0.000000 0.000000 4.012600 -29.337700 1.535400 
1.956557 17.174523 -47.571025 0.257704 -8.513133 31.867984 -3.918769 -6.398052 -7.128179 -10.042141 -2.690610 -58.376325 10.074104 19.764738 59.280387 4.193300 -6.849499 -1.250023 0.042200 -1.326300 -3.647100 8.735794 0.485756 5.618293 6.297437 -2.274197 -12.628832 -4.699127 -12.186721 33.594293 3.709111 -24.572046 34.845189 -1.928000 8.714500 -24.906100 -2.401727 4.868113 21.510688 -1.137861 5.013241 -4.157497 -4.595406 2.808599 -7.997091 -2.989540 -2.952921 -16.238241 3.859862 -3.910000 -4.979141 0.888200 -2.066200 1.866900 4.000132 -3.784174 0.185620 -86.146826 31.813255 31.788023 86.552840 -59.838218 -64.190954 -0.800441 -0.489122 -10.393930 24.109743 -14.252108 -6.340100 -7.125000 0.000000 0.000000 -1.658000 14.828600 1.179000 -6.165907 4.340620 0.062617 86.949112 2.501917 41.909050 -90.625166 58.015648 -68.026251 1.421684 0.598326 -3.073661 -20.236596 0.960851 -0.163500 7.125000 0.000000 0.000000 3.824600 -29.527300 1.445900 
